<svg width="21" height="20" viewBox="0 0 21 20" fill="none" xmlns="http://www.w3.org/2000/svg">
<path d="M18.8333 12.5C18.8333 15.725 16.225 18.3333 13 18.3333L13.875 16.875" stroke="#18AFB8" stroke-width="1.5" stroke-linecap="round" stroke-linejoin="round"/>
<path d="M2.16667 7.50002C2.16667 4.27502 4.77501 1.66669 8.00001 1.66669L7.125 3.12502" stroke="#18AFB8" stroke-width="1.5" stroke-linecap="round" stroke-linejoin="round"/>
<path d="M11.9167 3.70837L15.2333 5.62503L18.5167 3.71672" stroke="#18AFB8" stroke-width="1.5" stroke-linecap="round" stroke-linejoin="round"/>
<path d="M15.2333 9.01671V5.6167" stroke="#18AFB8" stroke-width="1.5" stroke-linecap="round" stroke-linejoin="round"/>
<path d="M14.45 1.84169L12.45 2.94998C12 3.19998 11.625 3.83331 11.625 4.34998V6.46668C11.625 6.98334 11.9917 7.61667 12.45 7.86667L14.45 8.97502C14.875 9.21669 15.575 9.21669 16.0083 8.97502L18.0083 7.86667C18.4583 7.61667 18.8333 6.98334 18.8333 6.46668V4.34998C18.8333 3.83331 18.4667 3.19998 18.0083 2.94998L16.0083 1.84169C15.5833 1.60835 14.8833 1.60835 14.45 1.84169Z" stroke="#18AFB8" stroke-width="1.5" stroke-linecap="round" stroke-linejoin="round"/>
<path d="M2.45834 12.875L5.76668 14.7917L9.05834 12.8833" stroke="#18AFB8" stroke-width="1.5" stroke-linecap="round" stroke-linejoin="round"/>
<path d="M5.76668 18.1833V14.7833" stroke="#18AFB8" stroke-width="1.5" stroke-linecap="round" stroke-linejoin="round"/>
<path d="M4.99167 11.0083L2.99168 12.1166C2.54168 12.3666 2.16667 12.9999 2.16667 13.5166V15.6333C2.16667 16.15 2.53334 16.7833 2.99168 17.0333L4.99167 18.1416C5.41667 18.3833 6.11667 18.3833 6.55 18.1416L8.55001 17.0333C9.00001 16.7833 9.375 16.15 9.375 15.6333V13.5166C9.375 12.9999 9.00834 12.3666 8.55001 12.1166L6.55 11.0083C6.11667 10.775 5.41667 10.775 4.99167 11.0083Z" stroke="#18AFB8" stroke-width="1.5" stroke-linecap="round" stroke-linejoin="round"/>
</svg>
