<svg width="121" height="56" viewBox="0 0 121 56" fill="none" xmlns="http://www.w3.org/2000/svg">
<g clip-path="url(#clip0_131_41)">
<path d="M79.5983 41.4766H74.3104C74.2503 41.4164 74.2503 41.3562 74.2503 41.2357V16.8434C74.2503 16.3616 74.1902 16.4218 74.671 16.4218H85.4871C86.6895 16.4203 87.8851 16.6031 89.0324 16.9638C90.2191 17.311 91.3093 17.9295 92.2171 18.7707C93.6476 20.006 94.5862 21.7165 94.8611 23.5889C95.1132 25.0261 94.9678 26.505 94.4404 27.8651C93.7876 29.5757 92.5817 31.0176 91.0153 31.9606C90.5346 32.2617 90.0539 32.4424 89.5732 32.6833C89.5131 32.6833 89.453 32.7436 89.3929 32.7436C89.377 32.7436 89.3617 32.7499 89.3504 32.7612C89.3391 32.7725 89.3328 32.7878 89.3328 32.8038C89.3929 32.9243 89.453 32.9845 89.5131 33.1049C91.4359 35.8152 93.2987 38.5255 95.2216 41.2357C95.2817 41.3562 95.4019 41.4164 95.4019 41.5369C95.2817 41.5971 95.1615 41.5369 95.1014 41.5369H89.6333C89.453 41.5971 89.3328 41.4766 89.2126 41.2959C87.4099 38.7664 85.6673 36.2368 83.8647 33.7072C83.6243 33.3458 83.7445 33.4061 83.3239 33.4061H79.7786C79.7185 33.5265 79.7786 33.647 79.7786 33.7674V41.1755C79.5983 41.2357 79.6584 41.3562 79.5983 41.4766ZM79.5983 24.8537V28.106C79.5983 28.4072 79.5983 28.4072 79.8987 28.4072H84.9463C85.3278 28.4171 85.7096 28.397 86.088 28.3469C86.6609 28.2469 87.2107 28.0428 87.7104 27.7446C88.1723 27.5041 88.5676 27.1527 88.8612 26.7219C89.1548 26.291 89.3374 25.7941 89.3929 25.2753C89.452 24.8403 89.4241 24.3979 89.3106 23.9739C89.1971 23.5499 89.0003 23.1528 88.7319 22.8059C88.3206 22.3074 87.78 21.9322 87.1696 21.7218C86.4752 21.4753 85.743 21.3529 85.0064 21.3605H79.7786C79.6584 21.3605 79.5983 21.3605 79.5983 21.4809V21.7218C79.5983 22.7457 79.5983 23.7696 79.5983 24.8537Z" fill="#242021"/>
<path d="M65.8377 23.6491C65.7777 23.5889 65.7176 23.5287 65.7176 23.4685C64.4728 22.178 62.8537 21.3139 61.0907 20.9991C60.3609 20.8391 59.6101 20.7984 58.8673 20.8787C57.7057 20.9749 56.5883 21.3689 55.6225 22.023C54.666 22.6213 53.8453 23.4141 53.2135 24.3501C52.5817 25.2861 52.1529 26.3446 51.9547 27.4571C51.7565 28.5696 51.7933 29.7114 52.0628 30.8087C52.3324 31.9061 52.8286 32.9345 53.5194 33.8277C54.6108 35.3033 56.1846 36.3478 57.966 36.7788C59.2946 37.1005 60.6849 37.0589 61.992 36.6584C62.8558 36.4263 63.6703 36.0385 64.3956 35.5141C64.5158 35.3936 64.636 35.3334 64.636 35.1527V31.7197C64.6338 31.6884 64.6205 31.659 64.5984 31.6369C64.5763 31.6147 64.5469 31.6014 64.5158 31.5992H59.2279C58.7472 31.5992 58.8073 31.6595 58.8073 31.1776V27.7446C58.8073 27.4435 58.7472 27.4435 59.1077 27.4435H69.5633C69.9238 27.4435 69.8637 27.4435 69.8637 27.7446V37.5618C69.9238 37.7425 69.8036 37.863 69.6835 37.9834C69.2628 38.405 68.8422 38.7664 68.4216 39.1277C66.7859 40.3666 64.8987 41.2301 62.8934 41.6573C61.5344 41.9668 60.1365 42.0683 58.7472 41.9585C57.1193 41.8365 55.5291 41.4074 54.0602 40.6937C51.4204 39.4404 49.2511 37.3716 47.871 34.7913C47.1994 33.555 46.7518 32.2092 46.549 30.8163C46.3783 29.72 46.3581 28.6055 46.4889 27.5037C46.8867 24.3702 48.4279 21.4952 50.8153 19.4332C52.5777 17.8423 54.7374 16.7599 57.0647 16.3013C58.345 16.0097 59.6641 15.9283 60.9705 16.0604C63.2802 16.2298 65.511 16.9751 67.4602 18.2286C68.2315 18.7228 68.9556 19.2874 69.6234 19.915L69.8036 20.0957C69.9238 20.2161 69.9238 20.2161 69.8036 20.2764C69.5633 20.4571 69.383 20.698 69.1427 20.8787C68.1812 21.7218 67.2799 22.565 66.3185 23.4082C66.1415 23.4494 65.9768 23.5319 65.8377 23.6491Z" fill="#242021"/>
<path d="M121 20.1559C120.94 20.2162 120.88 20.2764 120.82 20.2764C119.618 21.3605 118.476 22.3844 117.274 23.4685C117.214 23.5287 117.154 23.5287 117.154 23.5889H117.094L116.914 23.4082C116.117 22.5607 115.156 21.8845 114.09 21.4207C112.926 20.9185 111.649 20.7374 110.392 20.8963C109.134 21.0551 107.942 21.5481 106.939 22.3241C105.212 23.5752 104.046 25.4577 103.694 27.564C103.373 29.5002 103.754 31.4877 104.768 33.1669C105.782 34.8461 107.362 36.106 109.222 36.7186C110.135 37.0112 111.098 37.1088 112.05 37.005C113.003 36.9013 113.922 36.5985 114.751 36.1164C115.528 35.682 116.237 35.1339 116.854 34.4902L117.034 34.3095C117.045 34.2955 117.058 34.2842 117.074 34.2764C117.09 34.2686 117.107 34.2645 117.124 34.2645C117.142 34.2645 117.159 34.2686 117.175 34.2764C117.19 34.2842 117.204 34.2955 117.214 34.3095L117.335 34.43C118.476 35.4538 119.678 36.5379 120.82 37.5618L121 37.7425C120.955 37.8331 120.894 37.9148 120.82 37.9834C118.96 39.8864 116.574 41.187 113.97 41.7176C112.746 41.9774 111.491 42.0585 110.244 41.9585C107.654 41.7366 105.184 40.7643 103.136 39.1603C101.087 37.5562 99.5483 35.3895 98.7068 32.9243C98.2489 31.5668 98.0253 30.1411 98.0458 28.7083C98.1073 25.9033 99.1252 23.2039 100.93 21.0594C102.795 18.7435 105.373 17.1126 108.261 16.4218C109.635 16.0803 111.058 15.9785 112.467 16.1207C115.439 16.3602 118.239 17.6145 120.399 19.6741L120.94 20.2162C120.94 20.0957 120.94 20.0957 121 20.1559Z" fill="#242021"/>
<path d="M11.2163 10.2183C11.2163 10.3387 11.3365 10.399 11.4567 10.5194C11.6116 10.6445 11.7526 10.7858 11.8773 10.941C7.41311 15.437 4.90694 21.522 4.90694 27.8651C4.90694 34.2082 7.41311 40.2932 11.8773 44.7892C11.8773 44.8494 11.8773 44.8494 11.8172 44.8494L8.5123 48.1619C8.39826 48.1008 8.29642 48.0191 8.21185 47.921C6.84529 46.5552 5.63593 45.04 4.60647 43.4039C2.69777 40.4671 1.35276 37.199 0.64056 33.7674C0.397258 32.553 0.216749 31.3267 0.0997538 30.0935C-0.0103703 28.7312 -0.0304442 27.363 0.039664 25.998C0.438401 19.5702 2.9775 13.4623 7.25041 8.65236C7.61095 8.291 7.9114 7.92963 8.27194 7.56826C8.2824 7.55418 8.29599 7.54275 8.31164 7.53487C8.32729 7.52699 8.34456 7.52289 8.36207 7.52289C8.37959 7.52289 8.39686 7.52699 8.41251 7.53487C8.42815 7.54275 8.44175 7.55418 8.45221 7.56826L8.81275 7.92963L8.99301 8.11031C8.99301 8.17054 9.0531 8.23077 9.11319 8.291L10.976 10.1581C11.1562 10.2183 11.1562 10.2183 11.2163 10.2183Z" fill="#DF1E39"/>
<path d="M40.2997 20.6979C43.2441 17.9275 46.1885 15.2172 49.3131 12.6876H49.3732C49.3723 12.7342 49.3611 12.78 49.3403 12.8217C49.3195 12.8634 49.2897 12.8999 49.253 12.9285C48.592 13.832 47.9311 14.7354 47.21 15.6388C45.4073 17.9877 43.4844 20.3366 41.5015 22.565C41.3212 22.7457 41.201 22.9264 41.3813 23.1673C41.8192 24.3887 42.0822 25.6662 42.1625 26.9617C42.3475 29.649 41.7251 32.3302 40.3757 34.6597C39.0262 36.9892 37.0114 38.8601 34.5912 40.0311C33.2523 40.6957 31.809 41.1236 30.3248 41.2959C28.2828 41.5495 26.2101 41.3342 24.2633 40.6664C22.3166 39.9986 20.5469 38.8958 19.0881 37.4413C17.1895 35.5773 15.8918 33.1858 15.3625 30.5753C15.0733 29.2714 14.9922 27.9297 15.1222 26.6003C15.3404 23.8983 16.3902 21.3308 18.1266 19.2525C20.1009 16.8354 22.8328 15.1585 25.8782 14.4945C27.1626 14.2327 28.4772 14.1516 29.784 14.2535C31.8596 14.4485 33.8652 15.1069 35.6537 16.1803C37.4422 17.2538 38.9681 18.7152 40.1194 20.457C40.1795 20.5173 40.1795 20.6377 40.2997 20.6979ZM40.6602 23.7696C40.5529 23.817 40.4671 23.9029 40.4199 24.0105L38.2566 26.3594C35.4925 29.431 32.6082 32.322 29.6638 35.2129C29.5368 35.3479 29.3958 35.4691 29.2432 35.5743C29.0551 35.7486 28.8083 35.8454 28.5522 35.8454C28.296 35.8454 28.0492 35.7486 27.8611 35.5743C27.741 35.514 27.6809 35.3936 27.5607 35.3333C26.1786 34.0083 24.8567 32.6231 23.4746 31.2378C22.1526 29.8526 20.8307 28.4071 19.5688 26.9014C19.5087 26.8412 19.4486 26.7207 19.3284 26.6003C20.9131 27.5498 22.4382 28.5957 23.8952 29.7321C25.3975 30.8162 26.8396 31.9606 28.2818 33.1651C28.402 33.1049 28.462 32.9845 28.5822 32.864L32.0073 29.0696C34.3508 26.5401 36.7544 24.0707 39.2181 21.6616C39.5786 21.3605 39.5185 21.4809 39.2782 21.0593C37.8415 18.8314 35.7409 17.1139 33.2747 16.1511C30.8085 15.1882 28.1023 15.0289 25.5406 15.6958C22.979 16.3627 20.6922 17.8219 19.0052 19.866C17.3183 21.9101 16.317 24.435 16.1437 27.0821C16.0224 28.6287 16.2062 30.184 16.6845 31.6594C17.4219 34.0581 18.8565 36.1819 20.8046 37.759C22.7528 39.3361 25.126 40.295 27.6208 40.513C28.9072 40.6432 30.2063 40.5618 31.4665 40.272C34.6867 39.5425 37.4921 37.5742 39.2782 34.7913C40.2803 33.2154 40.9189 31.4353 41.1476 29.5807C41.3763 27.7261 41.1893 25.8437 40.6001 24.0707C40.7203 23.89 40.7203 23.7696 40.6602 23.7696Z" fill="#1CAE40"/>
<path d="M15.1823 14.6751C15.0575 14.5199 14.9165 14.3786 14.7616 14.2535C14.6415 14.1331 14.5213 14.0729 14.4612 13.8922C14.5213 13.7115 14.7015 13.6513 14.8217 13.5308C18.5085 9.90848 23.4495 7.8546 28.612 7.79848C33.7744 7.74236 38.7587 9.68834 42.523 13.2297C42.5831 13.2899 42.7033 13.3501 42.7634 13.4706C42.7634 13.591 42.7033 13.591 42.6432 13.6513C41.6217 14.6751 40.6002 15.7592 39.6387 16.7831L39.5185 16.9036C39.4585 16.9638 39.4585 16.9638 39.3984 16.9036C39.3383 16.8433 39.2782 16.8433 39.2782 16.7831C37.1715 14.7689 34.5154 13.4273 31.6468 12.9285C30.4191 12.6986 29.1682 12.6177 27.9212 12.6876C24.2529 12.8763 20.7846 14.4213 18.1867 17.024L18.0666 17.1445C18.0506 17.1445 18.0353 17.1508 18.0241 17.1621C18.0128 17.1734 18.0065 17.1887 18.0065 17.2047C17.9464 17.2047 17.8863 17.1445 17.8262 17.0843C17.5911 16.8788 17.3702 16.6574 17.1652 16.4218C17.1652 16.3615 17.1051 16.3615 17.1051 16.3013C16.5643 15.7592 16.0235 15.2172 15.4226 14.6751C15.3024 14.7354 15.2423 14.7354 15.1823 14.6751Z" fill="#1CAE40"/>
<path d="M17.4055 39.6096L17.9463 39.0675C18.0064 39.0073 18.0665 38.8868 18.1867 38.8868C19.6185 40.2803 21.3115 41.3756 23.1679 42.1095C25.0244 42.8435 27.0075 43.2015 29.0028 43.163C30.9908 43.1509 32.9563 42.7397 34.783 41.9535C36.6098 41.1673 38.2609 40.0222 39.6387 38.5857C39.7588 38.5857 39.7589 38.6459 39.8189 38.7061C40.8405 39.73 41.9221 40.7539 42.9436 41.7175L43.0638 41.838C43.1239 41.8982 43.1239 41.8982 43.0638 41.9585L42.8835 42.1391C40.4331 44.5861 37.3886 46.3506 34.0503 47.2585C32.1714 47.7725 30.2291 48.0158 28.2817 47.9813C25.246 47.9134 22.2658 47.1512 19.5687 45.7528C17.9435 44.9047 16.4464 43.83 15.1221 42.5607L15.0019 42.4403C14.8818 42.3198 14.8818 42.3198 15.0019 42.1391C15.1822 41.8982 15.4226 41.7176 15.6028 41.4766C15.6629 41.4164 15.723 41.4164 15.723 41.3562C16.2638 40.8141 16.7445 40.2721 17.2853 39.73L17.4055 39.6096ZM31.0459 46.4756C31.2729 46.3679 31.4936 46.2472 31.7068 46.1142C31.7849 46.0556 31.8797 46.0239 31.9772 46.0239C32.0748 46.0239 32.1696 46.0556 32.2477 46.1142C32.4279 46.2346 32.6082 46.2949 32.7885 46.4153C32.9086 46.4756 32.9086 46.4153 32.9086 46.2949C32.9086 46.1142 32.8485 45.9937 32.8485 45.8131C32.8485 45.6926 32.7284 45.5119 32.7885 45.3915C32.8485 45.271 32.9687 45.2108 33.0889 45.0903C33.2438 44.9653 33.3848 44.8239 33.5095 44.6687C33.4173 44.62 33.3129 44.5991 33.2091 44.6085C33.0288 44.6085 32.8485 44.5483 32.6082 44.5483C32.488 44.5483 32.4279 44.488 32.3678 44.3676C32.2476 44.1869 32.1876 43.946 32.0674 43.7653C32.0073 43.7051 32.0073 43.6448 31.9472 43.5846C31.827 43.8255 31.7068 44.1267 31.5867 44.3676C31.5266 44.488 31.4665 44.5483 31.3463 44.5483C31.166 44.5483 30.9858 44.6085 30.7454 44.6085C30.6252 44.6085 30.5651 44.6085 30.5051 44.6687C30.5114 44.7144 30.5325 44.7567 30.5651 44.7892C30.6899 44.9444 30.8309 45.0857 30.9858 45.2108C31.0445 45.2638 31.091 45.3289 31.1221 45.4017C31.1533 45.4745 31.1682 45.5532 31.166 45.6324C31.1059 45.9335 31.1059 46.1744 31.0459 46.4756ZM28.7625 44.2471C28.7024 44.3676 28.6423 44.4278 28.6423 44.488C28.5374 44.6567 28.4565 44.8391 28.4019 45.0301C28.3418 45.1505 28.2817 45.2108 28.1616 45.2108H27.9813C27.801 45.2108 27.6208 45.271 27.3804 45.271C27.3645 45.271 27.3492 45.2773 27.3379 45.2886C27.3266 45.2999 27.3203 45.3153 27.3203 45.3312C27.3203 45.3915 27.3203 45.3915 27.3804 45.4517L27.4405 45.5119L27.9212 45.9937C27.9813 46.054 27.9813 46.1142 27.9813 46.2346C27.9212 46.4756 27.9212 46.7165 27.8611 47.0176C27.8611 47.0778 27.9212 47.1381 27.9813 47.0778C28.1754 46.9655 28.376 46.8649 28.5822 46.7767C28.8826 46.6562 28.7625 46.6562 29.0629 46.7767C29.257 46.8891 29.4576 46.9896 29.6638 47.0778C29.7239 47.0778 29.784 47.0778 29.784 47.0176C29.7239 46.7767 29.7239 46.596 29.6638 46.3551C29.6367 46.2811 29.6338 46.2005 29.6554 46.1247C29.677 46.0489 29.722 45.982 29.784 45.9335L29.9642 45.7528C30.0816 45.6479 30.1829 45.5261 30.2647 45.3915C30.2647 45.3312 30.2046 45.3312 30.1445 45.3312C29.9642 45.3312 29.784 45.271 29.6638 45.271C29.1831 45.2108 29.3033 45.2108 29.123 44.9096C29.0028 44.6687 28.8826 44.488 28.7625 44.2471ZM24.0755 44.6687C24.0818 44.7144 24.1029 44.7567 24.1356 44.7892L24.6163 45.271C24.7365 45.3312 24.7365 45.4517 24.7365 45.5721C24.6764 45.8131 24.6764 46.054 24.6163 46.2949C24.6163 46.3551 24.6764 46.4153 24.7365 46.3551C24.9426 46.2669 25.1433 46.1663 25.3373 46.054C25.3928 46.0243 25.4547 46.0088 25.5176 46.0088C25.5805 46.0088 25.6424 46.0243 25.6979 46.054C25.8854 46.1781 26.0872 46.2792 26.2988 46.3551C26.3589 46.4153 26.419 46.3551 26.419 46.2949C26.419 46.1142 26.3589 45.9335 26.3589 45.8131C26.3589 45.6926 26.2387 45.5119 26.2988 45.3915C26.3589 45.271 26.479 45.2108 26.5992 45.0903C26.7541 44.9653 26.8951 44.8239 27.0199 44.6687C26.9598 44.6085 26.8997 44.6085 26.7795 44.5483C26.5833 44.4985 26.3808 44.4782 26.1786 44.488C26.0584 44.488 25.9382 44.4278 25.9382 44.3074C25.8135 44.0986 25.7127 43.8763 25.6378 43.6448C25.5777 43.5846 25.5176 43.5846 25.5176 43.6448C25.3938 43.8328 25.2929 44.035 25.2172 44.2471C25.1963 44.3242 25.1483 44.3911 25.082 44.4354C25.0157 44.4797 24.9356 44.4984 24.8566 44.488C24.6764 44.488 24.4961 44.5483 24.3158 44.5483C24.2557 44.6085 24.1356 44.6085 24.0755 44.6687Z" fill="#1CAE40"/>
<path d="M11.2163 10.2183C11.1562 10.2183 11.0961 10.1581 11.0361 10.0978L9.17328 8.23077C9.23337 8.29099 9.17328 8.23077 9.17328 8.17054C10.2962 7.03358 11.5234 6.00516 12.8387 5.09891C15.8864 2.93688 19.3418 1.42037 22.9939 0.642038C24.1652 0.398131 25.3486 0.217189 26.5392 0.0999857C27.9185 -0.0103918 29.3035 -0.0305108 30.6854 0.0397575C35.6565 0.384635 40.4469 2.04746 44.566 4.858C44.6261 4.91823 44.7463 4.97845 44.8064 5.03868C44.8203 5.04924 44.8317 5.06289 44.8394 5.07856C44.8472 5.09424 44.8513 5.11151 44.8513 5.12902C44.8513 5.14653 44.8472 5.16381 44.8394 5.17948C44.8317 5.19516 44.8203 5.20881 44.8064 5.21937C44.2656 5.9421 43.7248 6.72506 43.2441 7.4478L43.184 7.50803C43.0638 7.50803 43.0037 7.38757 42.9436 7.38757C40.2041 5.4996 37.1212 4.16948 33.8701 3.47275C32.0901 3.11065 30.2783 2.92905 28.462 2.9307C22.123 3.02396 16.0598 5.5453 11.5168 9.97738C11.4322 10.0755 11.3304 10.1571 11.2163 10.2183Z" fill="#1CAE40"/>
<path d="M17.4055 39.6095C17.3454 39.6698 17.3454 39.73 17.2854 39.7902C16.7446 40.3323 16.2638 40.8743 15.723 41.4164L15.6029 41.5368C14.707 40.6783 13.9016 39.7297 13.1993 38.7061C11.8257 36.658 10.8473 34.37 10.315 31.9606C10.136 31.1268 10.0156 30.2816 9.95443 29.431C9.89434 28.5688 9.89434 27.7034 9.95443 26.8412C10.0153 25.871 10.1357 24.9056 10.315 23.9502C10.8308 21.5252 11.8325 19.2303 13.2594 17.2047C13.7738 16.4495 14.3572 15.7438 15.002 15.0967C15.062 14.9763 15.1822 14.916 15.3024 14.7956C15.348 14.8019 15.3902 14.8231 15.4226 14.8558C15.9634 15.3979 16.5042 15.9399 17.1051 16.482C17.1652 16.482 17.1652 16.5422 17.1652 16.6024C16.4003 17.4175 15.716 18.305 15.1221 19.2525C14.0502 20.9699 13.2969 22.8675 12.8988 24.8537C12.7786 25.5162 12.6585 26.2389 12.5984 26.9616C12.5984 27.3832 12.5383 27.8048 12.5383 28.2264C12.5625 30.3558 12.9907 32.4611 13.8002 34.4299C14.6062 36.3394 15.7687 38.077 17.2253 39.5493C17.2253 39.4288 17.3454 39.4891 17.4055 39.6095Z" fill="#F9CE1A"/>
<path d="M80.9804 53.0404C80.7912 53.2269 80.5652 53.3715 80.3167 53.4649C80.0683 53.5583 79.8031 53.5983 79.5382 53.5824H74.9113C74.7138 53.599 74.5155 53.5632 74.3362 53.4786C74.1569 53.394 74.0029 53.2637 73.8898 53.1006H73.8297C73.6529 53.3294 73.3944 53.4806 73.1086 53.5222C72.9283 53.5222 72.7481 53.5824 72.5678 53.5824H69.6234C69.4173 53.5993 69.2103 53.5641 69.0213 53.4799C68.8323 53.3957 68.6674 53.2653 68.5418 53.1006C68.4817 53.1006 68.4817 53.1006 68.4817 53.1608C68.2811 53.3919 68.0034 53.5418 67.7006 53.5824C67.5203 53.5824 67.34 53.6427 67.1598 53.6427H60.4898C60.3075 53.6525 60.1248 53.6321 59.949 53.5824C59.8106 53.5329 59.6849 53.4532 59.581 53.349C59.477 53.2449 59.3975 53.1189 59.3481 52.9801C59.2806 52.849 59.2398 52.7057 59.2279 52.5585V46.596C59.2279 46.1744 59.1678 46.1744 59.6486 46.1744H60.61C60.7903 46.1744 60.7903 46.2346 60.7903 46.4153V51.9563C60.7832 52.0054 60.7877 52.0554 60.8033 52.1025C60.8189 52.1495 60.8453 52.1923 60.8803 52.2274C60.9153 52.2625 60.958 52.2889 61.0049 52.3045C61.0519 52.3202 61.1018 52.3247 61.1508 52.3176H66.6189C66.8593 52.3176 66.9194 52.1972 66.9795 52.0165C67.0322 51.8204 67.0525 51.6169 67.0396 51.4142V49.4267C67.0396 49.0051 67.0396 49.0051 67.4001 49.0051H68.1212C68.5418 49.0051 68.5418 49.0051 68.5418 49.4267V51.6551C68.5488 51.8026 68.6065 51.9432 68.7051 52.0529C68.8036 52.1627 68.937 52.2349 69.0826 52.2574H71.6665C72.0871 52.2574 72.2073 52.1972 72.2073 51.7756V49.246C72.2073 48.9449 72.2073 48.9449 72.5077 48.9449H73.5293C73.7095 48.9449 73.7696 49.0051 73.7696 49.1858V51.5347C73.7586 51.6271 73.7676 51.7209 73.796 51.8095C73.8245 51.8981 73.8717 51.9795 73.9345 52.0482C73.9973 52.1168 74.0741 52.171 74.1597 52.2072C74.2453 52.2433 74.3378 52.2604 74.4306 52.2574H79.4781C79.6172 52.2545 79.7514 52.2057 79.86 52.1186C79.9687 52.0315 80.0456 51.9109 80.079 51.7756C80.1287 51.5789 80.149 51.3759 80.1391 51.1733C80.1292 50.9308 80.1494 50.6881 80.1992 50.4506C80.2571 50.1008 80.4116 49.7743 80.6453 49.5082C80.8789 49.242 81.1824 49.0469 81.5212 48.9449C82.1699 48.7642 82.8554 48.7642 83.5041 48.9449C83.8507 49.0436 84.1632 49.2365 84.4071 49.5023C84.651 49.768 84.8169 50.0962 84.8862 50.4506C85.0065 51.0062 85.0065 51.5813 84.8862 52.137C84.8227 52.5033 84.6516 52.8424 84.3946 53.1107C84.1377 53.3789 83.8067 53.5642 83.444 53.6427C82.8289 53.7631 82.1964 53.7631 81.5813 53.6427C81.5813 53.462 81.2808 53.2813 80.9804 53.0404ZM83.7445 51.2335V50.8722C83.7313 50.7524 83.6941 50.6366 83.635 50.5317C83.5759 50.4268 83.4962 50.335 83.4007 50.2618C83.3053 50.1886 83.196 50.1356 83.0795 50.1059C82.963 50.0763 82.8417 50.0706 82.723 50.0892C82.5417 50.0886 82.3668 50.1564 82.2332 50.2792C82.0996 50.4019 82.017 50.5706 82.0019 50.7517C81.9417 51.0701 81.9417 51.397 82.0019 51.7154C82.0323 51.8637 82.1054 51.9998 82.2122 52.1068C82.319 52.2139 82.4548 52.2872 82.6028 52.3176C82.778 52.3778 82.9683 52.3778 83.1436 52.3176C83.2635 52.282 83.374 52.2203 83.4675 52.1371C83.561 52.0538 83.635 51.951 83.6844 51.8358C83.7372 51.6397 83.7575 51.4362 83.7445 51.2335Z" fill="#1CAE40"/>
<path d="M109.523 49.246C109.643 49.3062 109.703 49.246 109.763 49.1858C110.184 49.0022 110.63 48.8805 111.085 48.8244C111.661 48.6926 112.262 48.7134 112.828 48.8846C113.273 48.9811 113.679 49.2116 113.99 49.5452C114.302 49.8788 114.504 50.2997 114.57 50.7517C114.62 51.0095 114.64 51.2722 114.631 51.5347C114.615 51.6943 114.664 51.8535 114.765 51.9776C114.866 52.1017 115.012 52.1806 115.171 52.1972C115.529 52.2574 115.895 52.2574 116.253 52.1972C116.338 52.1945 116.42 52.1634 116.485 52.1089C116.55 52.0543 116.596 51.9794 116.613 51.896V49.0653C116.616 49.0341 116.629 49.0046 116.651 48.9825C116.673 48.9603 116.702 48.947 116.734 48.9449H117.996C118.02 48.9413 118.045 48.9436 118.068 48.9514C118.092 48.9592 118.113 48.9725 118.131 48.99C118.148 49.0075 118.161 49.0289 118.169 49.0524C118.177 49.076 118.179 49.101 118.176 49.1256V52.137C118.183 52.3395 118.163 52.5421 118.116 52.7392C118.074 52.9376 117.979 53.1209 117.842 53.2694C117.704 53.418 117.529 53.5262 117.335 53.5824C117.214 53.5824 117.094 53.6427 116.974 53.6427H115.532C115.305 53.6573 115.078 53.6088 114.876 53.5026C114.675 53.3963 114.507 53.2364 114.39 53.0404C114.33 53.0404 114.33 53.0404 114.27 53.1006C114.044 53.3737 113.721 53.5468 113.369 53.5824C113.112 53.6348 112.849 53.655 112.587 53.6427H109.763C109.55 53.6389 109.342 53.5764 109.162 53.462C109.102 53.462 109.102 53.4017 109.042 53.462C108.77 53.557 108.488 53.6177 108.201 53.6427H100.209C100.007 53.6525 99.8043 53.6322 99.6081 53.5824C99.4618 53.5344 99.3273 53.4559 99.2134 53.3521C99.0995 53.2483 99.0088 53.1215 98.9471 52.9801C98.8782 52.7656 98.8378 52.5428 98.827 52.3176V46.2948C98.8291 46.2636 98.8424 46.2342 98.8645 46.212C98.8866 46.1899 98.916 46.1765 98.9471 46.1744H100.209C100.389 46.1744 100.389 46.2346 100.389 46.3551V51.9563C100.449 52.1972 100.509 52.2574 100.75 52.3176H107.36C107.46 52.3176 107.558 52.2893 107.643 52.2361C107.728 52.1828 107.796 52.1068 107.84 52.0165C107.889 51.9027 107.91 51.7787 107.9 51.6551V46.596C107.9 46.1744 107.9 46.1744 108.321 46.1744H109.343C109.374 46.1765 109.403 46.1899 109.425 46.212C109.447 46.2342 109.461 46.2636 109.463 46.2948V49.0051C109.523 49.0653 109.523 49.1255 109.523 49.246ZM110.905 52.2574H112.167C112.271 52.2732 112.377 52.2519 112.467 52.1972C112.561 52.1674 112.644 52.1122 112.707 52.0377C112.771 51.9632 112.813 51.8725 112.828 51.7756C112.888 51.4978 112.888 51.2102 112.828 50.9324C112.804 50.733 112.714 50.5474 112.572 50.4054C112.431 50.2634 112.246 50.1733 112.047 50.1494C111.851 50.0965 111.648 50.0762 111.446 50.0892C110.784 50.1072 110.132 50.2503 109.523 50.5108C109.403 50.571 109.403 50.6312 109.403 50.6915V52.0767C109.403 52.137 109.463 52.1972 109.583 52.1972C110.022 52.246 110.463 52.2661 110.905 52.2574Z" fill="#1CAE40"/>
<path d="M58.0862 50.029V53.2211C58.0961 53.4636 58.0759 53.7063 58.0261 53.9438C57.9648 54.3949 57.7727 54.8181 57.4736 55.1607C57.1744 55.5033 56.7815 55.7503 56.3436 55.8711C55.6116 56.0614 54.8409 56.0405 54.1203 55.8109C53.662 55.677 53.2579 55.4007 52.9663 55.0219C52.6748 54.643 52.5107 54.1812 52.4978 53.7029C52.4266 52.9158 52.5721 52.1242 52.9185 51.4142C53.0387 51.1131 53.0386 51.0529 53.4593 51.1733C53.7105 51.2809 53.9723 51.3617 54.2404 51.4142C54.601 51.5347 54.4808 51.5949 54.4207 51.7756C54.3606 51.9563 54.2404 52.137 54.1804 52.3177C54.0514 52.726 54.0104 53.1571 54.0602 53.5824C54.0881 53.8763 54.2293 54.1477 54.4537 54.3389C54.6781 54.53 54.9681 54.626 55.262 54.6063C55.4048 54.616 55.5481 54.5955 55.6826 54.5461C55.8834 54.4927 56.0619 54.3761 56.1917 54.2135C56.3215 54.0509 56.3958 53.8508 56.4037 53.6427V46.4755C56.4037 46.1744 56.4037 46.1142 56.7041 46.1142H57.7256C57.7501 46.1106 57.7751 46.1129 57.7986 46.1207C57.8221 46.1286 57.8434 46.1418 57.8609 46.1593C57.8784 46.1768 57.8916 46.1982 57.8994 46.2217C57.9072 46.2453 57.9094 46.2703 57.9059 46.2949V46.5358C58.0558 47.6938 58.1161 48.8617 58.0862 50.029Z" fill="#1CAE40"/>
<path d="M93.5991 53.1609C93.4789 53.2813 93.3588 53.3416 93.2386 53.462C93.174 53.5358 93.1248 53.6217 93.0938 53.7148C93.0629 53.8079 93.0508 53.9062 93.0583 54.0041V55.5098C93.0583 55.9314 93.1184 55.8711 92.6978 55.8711H91.6763C91.5561 55.8711 91.496 55.8711 91.496 55.7507V53.6427C91.4948 53.4255 91.5495 53.2116 91.6548 53.0218C91.76 52.8319 91.9123 52.6724 92.0969 52.5586C92.2265 52.4442 92.3675 52.3433 92.5175 52.2575C92.6127 52.1756 92.6889 52.0739 92.7408 51.9595C92.7927 51.8451 92.819 51.7206 92.818 51.595C92.808 51.2325 92.8281 50.8699 92.8781 50.5108C92.9403 50.0757 93.1454 49.6736 93.4609 49.3682C93.7765 49.0629 94.1845 48.8715 94.6206 48.8245C95.0809 48.7542 95.5503 48.7746 96.0027 48.8847C96.4128 48.9657 96.7882 49.1708 97.0783 49.4724C97.3684 49.7739 97.5593 50.1574 97.6251 50.5711C97.6852 51.0309 97.6852 51.4965 97.6251 51.9563C97.5691 52.3739 97.3815 52.7627 97.0897 53.0661C96.7979 53.3694 96.4171 53.5714 96.0027 53.6427C95.5262 53.733 95.0371 53.733 94.5606 53.6427C94.2571 53.5855 93.9699 53.4621 93.7193 53.2813C93.7193 53.2211 93.6592 53.2211 93.5991 53.1609ZM96.1229 51.2938C96.1328 51.0713 96.1126 50.8484 96.0628 50.6313C96.038 50.5224 95.9866 50.4213 95.9131 50.3372C95.8397 50.2531 95.7466 50.1886 95.6422 50.1495C95.4522 50.0702 95.2431 50.0493 95.0413 50.0893C94.9013 50.1161 94.7713 50.1808 94.6654 50.2763C94.5595 50.3719 94.4817 50.4946 94.4404 50.6313C94.3202 51.0238 94.3202 51.4434 94.4404 51.8359C94.4708 51.9454 94.5325 52.0437 94.6179 52.1186C94.7033 52.1935 94.8087 52.2418 94.9211 52.2575C95.1169 52.3178 95.3262 52.3178 95.522 52.2575C95.6655 52.2397 95.8001 52.1782 95.9076 52.0813C96.0151 51.9843 96.0902 51.8566 96.1229 51.7154V51.2938Z" fill="#1CAE40"/>
<path d="M88.0108 49.8483V53.4017C88.0144 53.4263 88.0121 53.4513 88.0043 53.4749C87.9965 53.4984 87.9833 53.5198 87.9658 53.5373C87.9483 53.5548 87.927 53.5681 87.9035 53.5759C87.88 53.5837 87.8551 53.586 87.8306 53.5824H86.6288C86.6043 53.586 86.5793 53.5837 86.5558 53.5759C86.5324 53.5681 86.511 53.5548 86.4935 53.5373C86.476 53.5198 86.4629 53.4984 86.455 53.4749C86.4472 53.4513 86.445 53.4263 86.4485 53.4017V46.4755C86.4485 46.0539 86.4485 46.0539 86.8691 46.0539H87.8306C87.8551 46.0504 87.88 46.0526 87.9035 46.0605C87.927 46.0683 87.9483 46.0815 87.9658 46.0991C87.9833 46.1166 87.9965 46.138 88.0043 46.1615C88.0121 46.185 88.0144 46.2101 88.0108 46.2346V49.8483Z" fill="#1CAE40"/>
<path d="M117.335 47.8608H116.674C116.649 47.8643 116.624 47.862 116.601 47.8542C116.577 47.8464 116.556 47.8332 116.538 47.8156C116.521 47.7981 116.508 47.7767 116.5 47.7532C116.492 47.7297 116.49 47.7046 116.493 47.6801V46.7164C116.49 46.6919 116.492 46.6668 116.5 46.6433C116.508 46.6198 116.521 46.5984 116.538 46.5809C116.556 46.5633 116.577 46.5501 116.601 46.5423C116.624 46.5345 116.649 46.5322 116.674 46.5357H117.935C117.96 46.5322 117.985 46.5345 118.008 46.5423C118.032 46.5501 118.053 46.5633 118.071 46.5809C118.088 46.5984 118.101 46.6198 118.109 46.6433C118.117 46.6668 118.119 46.6919 118.116 46.7164V47.6801C118.119 47.7046 118.117 47.7297 118.109 47.7532C118.101 47.7767 118.088 47.7981 118.071 47.8156C118.053 47.8332 118.032 47.8464 118.008 47.8542C117.985 47.862 117.96 47.8643 117.935 47.8608H117.335Z" fill="#1CAE40"/>
<path d="M111.866 47.8608H111.205C111.085 47.8608 111.085 47.8006 111.085 47.7403V46.7165C111.085 46.596 111.145 46.596 111.205 46.596H112.467C112.587 46.596 112.587 46.6562 112.587 46.7165V47.7403C112.587 47.8608 112.527 47.8608 112.467 47.8608H111.866Z" fill="#1CAE40"/>
<path d="M67.2198 47.8608H66.679C66.5588 47.8608 66.5588 47.8005 66.5588 47.7403V46.7164C66.5553 46.6919 66.5575 46.6668 66.5653 46.6433C66.5732 46.6198 66.5863 46.5984 66.6038 46.5809C66.6213 46.5633 66.6427 46.5501 66.6661 46.5423C66.6896 46.5345 66.7146 46.5322 66.7391 46.5357H67.7606C67.8808 46.5357 67.8808 46.596 67.8808 46.6562V47.6801C67.8843 47.7046 67.8821 47.7297 67.8743 47.7532C67.8664 47.7767 67.8533 47.7981 67.8358 47.8156C67.8183 47.8332 67.7969 47.8464 67.7735 47.8542C67.75 47.862 67.725 47.8643 67.7005 47.8608H67.2198Z" fill="#1CAE40"/>
<path d="M68.0611 46.2949H67.5203C67.4891 46.2928 67.4597 46.2794 67.4376 46.2572C67.4155 46.2351 67.4022 46.2057 67.4001 46.1744V45.0903C67.4001 44.9699 67.4602 44.9698 67.5203 44.9698H68.5418C68.662 44.9698 68.662 45.0301 68.662 45.0903V46.1142C68.6599 46.1454 68.6465 46.1749 68.6244 46.197C68.6023 46.2192 68.573 46.2325 68.5418 46.2346C68.3875 46.2881 68.2238 46.3086 68.0611 46.2949Z" fill="#1CAE40"/>
<path d="M68.9023 47.8608H68.3615C68.2413 47.8608 68.2413 47.8006 68.2413 47.7403V46.7165C68.2434 46.6852 68.2568 46.6558 68.2789 46.6336C68.301 46.6115 68.3303 46.5981 68.3615 46.596H69.383C69.5032 46.596 69.5032 46.6562 69.5032 46.7165V47.7403C69.5032 47.8608 69.4431 47.8608 69.383 47.8608H68.9023Z" fill="#1CAE40"/>
<path d="M74.1902 47.8608H73.7095C73.685 47.8643 73.66 47.8621 73.6365 47.8542C73.6131 47.8464 73.5917 47.8332 73.5742 47.8157C73.5567 47.7981 73.5436 47.7767 73.5357 47.7532C73.5279 47.7297 73.5257 47.7046 73.5292 47.6801V46.6562C73.5292 46.5358 73.5893 46.5358 73.6494 46.5358H74.731C74.7622 46.5379 74.7915 46.5513 74.8136 46.5734C74.8357 46.5955 74.8491 46.625 74.8512 46.6562V47.7403C74.8491 47.7716 74.8357 47.801 74.8136 47.8232C74.7915 47.8453 74.7622 47.8587 74.731 47.8608H74.1902Z" fill="#1CAE40"/>
<path d="M72.4476 47.8608H71.9068C71.7867 47.8608 71.7867 47.8005 71.7867 47.7403V46.7164C71.7831 46.6919 71.7854 46.6668 71.7932 46.6433C71.801 46.6198 71.8142 46.5984 71.8317 46.5809C71.8492 46.5633 71.8705 46.5501 71.894 46.5423C71.9175 46.5345 71.9424 46.5322 71.9669 46.5357H72.9284C72.9595 46.5379 72.9889 46.5512 73.011 46.5734C73.0331 46.5955 73.0464 46.6249 73.0485 46.6562V47.6801C73.0521 47.7046 73.0498 47.7297 73.042 47.7532C73.0342 47.7767 73.021 47.7981 73.0035 47.8156C72.986 47.8332 72.9647 47.8464 72.9412 47.8542C72.9177 47.862 72.8928 47.8643 72.8683 47.8608H72.4476Z" fill="#1CAE40"/>
</g>
<defs>
<clipPath id="clip0_131_41">
<rect width="121" height="56" fill="white"/>
</clipPath>
</defs>
</svg>
