<svg width="24" height="24" viewBox="0 0 24 24" fill="none" xmlns="http://www.w3.org/2000/svg">
<path d="M17.79 22.74H6.21C3.47 22.74 1.25 20.51 1.25 17.77V10.36C1.25 9.00003 2.09 7.29003 3.17 6.45003L8.56 2.25003C10.18 0.990025 12.77 0.930025 14.45 2.11003L20.63 6.44003C21.82 7.27003 22.75 9.05003 22.75 10.5V17.78C22.75 20.51 20.53 22.74 17.79 22.74ZM9.48 3.43003L4.09 7.63003C3.38 8.19003 2.75 9.46003 2.75 10.36V17.77C2.75 19.68 4.3 21.24 6.21 21.24H17.79C19.7 21.24 21.25 19.69 21.25 17.78V10.5C21.25 9.54003 20.56 8.21003 19.77 7.67003L13.59 3.34003C12.45 2.54003 10.57 2.58003 9.48 3.43003Z" fill="#18AFB8"/>
<path d="M7.5 17.25C7.31 17.25 7.12 17.18 6.97 17.03C6.68 16.74 6.68 16.26 6.97 15.97L10.17 12.77C10.33 12.61 10.54 12.53 10.77 12.55C10.99 12.57 11.19 12.69 11.32 12.88L12.41 14.52L15.96 10.97C16.25 10.68 16.73 10.68 17.02 10.97C17.31 11.26 17.31 11.74 17.02 12.03L12.82 16.23C12.66 16.39 12.45 16.47 12.22 16.45C12 16.43 11.8 16.31 11.67 16.12L10.58 14.48L8.03 17.03C7.88 17.18 7.69 17.25 7.5 17.25Z" fill="#18AFB8"/>
<path d="M16.5 14.25C16.09 14.25 15.75 13.91 15.75 13.5V12.25H14.5C14.09 12.25 13.75 11.91 13.75 11.5C13.75 11.09 14.09 10.75 14.5 10.75H16.5C16.91 10.75 17.25 11.09 17.25 11.5V13.5C17.25 13.91 16.91 14.25 16.5 14.25Z" fill="#18AFB8"/>
</svg>
