<svg width="20" height="20" viewBox="0 0 20 20" fill="none" xmlns="http://www.w3.org/2000/svg">
<path d="M10.8426 2.43359L15.7592 4.61693C17.1759 5.24193 17.1759 6.27526 15.7592 6.90026L10.8426 9.08359C10.2842 9.33359 9.36758 9.33359 8.80924 9.08359L3.89258 6.90026C2.47591 6.27526 2.47591 5.24193 3.89258 4.61693L8.80924 2.43359C9.36758 2.18359 10.2842 2.18359 10.8426 2.43359Z" stroke="#6C7693" stroke-width="1.5" stroke-linecap="round" stroke-linejoin="round"/>
<path d="M2.5 9.16602C2.5 9.86602 3.025 10.6743 3.66667 10.9577L9.325 13.4743C9.75833 13.666 10.25 13.666 10.675 13.4743L16.3333 10.9577C16.975 10.6743 17.5 9.86602 17.5 9.16602" stroke="#6C7693" stroke-width="1.5" stroke-linecap="round" stroke-linejoin="round"/>
<path d="M2.5 13.334C2.5 14.109 2.95833 14.809 3.66667 15.1257L9.325 17.6423C9.75833 17.834 10.25 17.834 10.675 17.6423L16.3333 15.1257C17.0417 14.809 17.5 14.109 17.5 13.334" stroke="#6C7693" stroke-width="1.5" stroke-linecap="round" stroke-linejoin="round"/>
</svg>
