<svg width="21" height="20" viewBox="0 0 21 20" fill="none" xmlns="http://www.w3.org/2000/svg">
<path d="M18.8333 5.00002V7.01669C18.8333 8.33335 18 9.16669 16.6833 9.16669H13.8333V3.34169C13.8333 2.41669 14.5917 1.66669 15.5167 1.66669C16.425 1.67502 17.2583 2.04169 17.8583 2.64169C18.4583 3.25002 18.8333 4.08335 18.8333 5.00002Z" stroke="#18AFB8" stroke-width="1.5" stroke-miterlimit="10" stroke-linecap="round" stroke-linejoin="round"/>
<path d="M2.16666 5.83335V17.5C2.16666 18.1917 2.95 18.5834 3.5 18.1667L4.925 17.1C5.25833 16.85 5.725 16.8834 6.025 17.1834L7.40833 18.575C7.73333 18.9 8.26667 18.9 8.59167 18.575L9.99166 17.175C10.2833 16.8834 10.75 16.85 11.075 17.1L12.5 18.1667C13.05 18.575 13.8333 18.1834 13.8333 17.5V3.33335C13.8333 2.41669 14.5833 1.66669 15.5 1.66669H6.33333H5.5C3 1.66669 2.16666 3.15835 2.16666 5.00002V5.83335Z" stroke="#18AFB8" stroke-width="1.5" stroke-miterlimit="10" stroke-linecap="round" stroke-linejoin="round"/>
<path d="M5.70834 8.33331H10.2917" stroke="#18AFB8" stroke-width="1.5" stroke-linecap="round" stroke-linejoin="round"/>
<path d="M8 10.625V6.04169" stroke="#18AFB8" stroke-width="1.5" stroke-linecap="round" stroke-linejoin="round"/>
</svg>
